<svg width="1210" height="142" viewBox="0 0 1210 142" fill="none" xmlns="http://www.w3.org/2000/svg">
<g clip-path="url(#clip0_420_3864)">
<g filter="url(#filter0_f_420_3864)">
<path fill-rule="evenodd" clip-rule="evenodd" d="M118.616 -406.989C187.156 -406.093 231.231 -344.362 284.706 -302.76C349.926 -252.02 443.779 -221.255 459.695 -141.636C477.094 -54.5986 441.026 48.3657 364.623 97.0162C293.07 142.579 204.094 71.2841 118.616 75.5508C22.7451 80.3361 -75.3835 176.238 -154.081 122.907C-232.727 69.6102 -223.396 -50.9415 -201.871 -141.636C-184.216 -216.03 -111.87 -257.604 -52.0133 -307.163C0.505692 -350.647 49.5751 -407.892 118.616 -406.989Z" fill="#D65934"/>
<path fill-rule="evenodd" clip-rule="evenodd" d="M1051.8 -584.989C1131.81 -584.063 1183.27 -520.297 1245.69 -477.323C1321.83 -424.91 1431.39 -393.132 1449.97 -310.888C1470.29 -220.981 1428.18 -114.622 1338.99 -64.368C1255.46 -17.3031 1151.59 -90.9483 1051.8 -86.541C939.879 -81.5979 825.323 17.4659 733.452 -37.6235C641.64 -92.6775 652.534 -217.203 677.661 -310.888C698.272 -387.734 782.729 -430.679 852.606 -481.872C913.916 -526.79 971.2 -585.922 1051.8 -584.989Z" fill="#D65934"/>
<path fill-rule="evenodd" clip-rule="evenodd" d="M609.363 -397.526C680.084 -378.534 707.989 -294.497 751.959 -232.446C786.34 -183.927 820.27 -139.37 834.103 -80.3702C854.113 4.97226 902.961 108.441 847.051 173.12C791.206 237.725 688.918 202.477 609.363 179.621C551.255 162.927 515.456 110.541 472.558 65.5296C429.046 19.8725 377.557 -17.5385 361.583 -80.3702C339.934 -165.531 317.821 -267.024 370.782 -334.813C425.287 -404.579 526.793 -419.701 609.363 -397.526Z" fill="#20343F"/>
<path fill-rule="evenodd" clip-rule="evenodd" d="M344.269 62.2568C449.888 82.8192 491.562 173.802 557.23 240.982C608.577 293.512 659.249 341.752 679.909 405.628C709.793 498.025 782.745 610.046 699.246 680.072C615.844 750.016 463.081 711.855 344.269 687.11C257.488 669.036 204.023 612.32 139.957 563.588C74.9729 514.157 -1.92358 473.654 -25.779 405.628C-58.1123 313.428 -91.1359 203.546 -12.0417 130.154C69.3591 54.6214 220.954 38.2493 344.269 62.2568Z" fill="#20343F"/>
<path fill-rule="evenodd" clip-rule="evenodd" d="M997.407 -172.001C1080.53 -175.269 1099.11 -73.4107 1159.95 -26.7625C1225.44 23.4546 1362.46 33.1873 1360.99 106.777C1359.51 180.619 1229.32 194.828 1154.68 235.988C1103 264.488 1059.39 302.584 997.407 307.277C929.433 312.423 863.484 295.12 808.204 262.218C740.853 222.132 650.37 174.591 660.538 106.777C670.707 38.964 791.115 33.9216 849.707 -14.567C908.774 -63.4483 913.664 -168.709 997.407 -172.001Z" fill="#EAD082"/>
<path fill-rule="evenodd" clip-rule="evenodd" d="M971.318 -20.8943C1068.64 -25.3916 1090.39 114.802 1161.62 179.007C1238.3 248.125 1398.71 261.52 1396.99 362.806C1395.25 464.441 1242.84 483.997 1155.45 540.648C1094.95 579.875 1043.88 632.31 971.318 638.768C891.736 645.85 814.524 622.035 749.804 576.75C670.952 521.577 565.016 456.143 576.922 362.806C588.827 269.471 729.797 262.531 798.396 195.793C867.55 128.514 873.274 -16.3634 971.318 -20.8943Z" fill="#00154A" fill-opacity="0.25"/>
</g>
</g>
<defs>
<filter id="filter0_f_420_3864" x="-413.3" y="-781.3" width="2064.6" height="1697.6" filterUnits="userSpaceOnUse" color-interpolation-filters="sRGB">
<feFlood flood-opacity="0" result="BackgroundImageFix"/>
<feBlend mode="normal" in="SourceGraphic" in2="BackgroundImageFix" result="shape"/>
<feGaussianBlur stdDeviation="98.15" result="effect1_foregroundBlur_420_3864"/>
</filter>
<clipPath id="clip0_420_3864">
<rect width="1512" height="982" fill="white" transform="translate(-151 -439)"/>
</clipPath>
</defs>
</svg>
